<svg id="help" xmlns="http://www.w3.org/2000/svg" width="19.85" height="27" viewBox="0 0 19.85 27"><defs><style>.cls-1{fill:#47cdff;}</style></defs><title>help</title><path id="help-2" data-name="help" class="cls-1" d="M6.42,18.84a8.35,8.35,0,0,0,.06-1.46,6.61,6.61,0,0,1,1.4-4.7c.76-.89,1-1.08,3.27-2.45,1.56-.92,2.07-1.59,2.07-2.64,0-1.49-1.11-2.38-3-2.38A3.35,3.35,0,0,0,7.12,6.7a4.26,4.26,0,0,0-.57,1.94L0,8A8,8,0,0,1,2,3.18C3.87,1.08,6.7,0,10.35,0c5.85,0,9.5,2.76,9.5,7.15a6,6,0,0,1-2,4.67A21.54,21.54,0,0,1,14,14.45a3.28,3.28,0,0,0-1.81,3.15,9.15,9.15,0,0,0,.1,1.24ZM12.58,21v6H6.19V21Z"/></svg>